HIERARCHY
ROOT RootJoint
{
    OFFSET   0.000000   0.000000   0.000000
    CHANNELS 6 Xposition Yposition Zposition Xrotation Yrotation Zrotation
    JOINT pelvis_lowerback
    {
        OFFSET   0.000000   0.093605   0.000000
        CHANNELS 3 Xrotation Yrotation Zrotation
        JOINT lowerback_torso
        {
            OFFSET   0.000000   0.100000   0.000000
            CHANNELS 3 Xrotation Yrotation Zrotation
            JOINT torso_head
            {
                OFFSET   0.000000   0.282350   0.000000
                CHANNELS 3 Xrotation Yrotation Zrotation
                End Site
                {
                    OFFSET   0.000000   0.192650   0.000000
                }
            }
            JOINT rTorso_Clavicle
            {
                OFFSET  -0.001000   0.157500   0.000000
                CHANNELS 3 Xrotation Yrotation Zrotation
                JOINT rShoulder
                {
                    OFFSET  -0.117647   0.000000   0.000000
                    CHANNELS 3 Xrotation Yrotation Zrotation
                    JOINT rElbow
                    {
                        OFFSET  -0.245000   0.000000   0.000000
                        CHANNELS 3 Xrotation Yrotation Zrotation
                        JOINT rWrist
                        {
                            OFFSET  -0.240000   0.000000   0.000000
                            CHANNELS 3 Xrotation Yrotation Zrotation
                            End Site
                            {
                                OFFSET  -0.116353  -0.002500   0.000000
                            }
                        }
                    }
                }
            }
            JOINT lTorso_Clavicle
            {
                OFFSET   0.001000   0.157500   0.000000
                CHANNELS 3 Xrotation Yrotation Zrotation
                JOINT lShoulder
                {
                    OFFSET   0.117647   0.000000   0.000000
                    CHANNELS 3 Xrotation Yrotation Zrotation
                    JOINT lElbow
                    {
                        OFFSET   0.245000   0.000000   0.000000
                        CHANNELS 3 Xrotation Yrotation Zrotation
                        JOINT lWrist
                        {
                            OFFSET   0.240000   0.000000   0.000000
                            CHANNELS 3 Xrotation Yrotation Zrotation
                            End Site
                            {
                                OFFSET   0.116353  -0.002500   0.000000
                            }
                        }
                    }
                }
            }
        }
    }
    JOINT rHip
    {
        OFFSET  -0.100000  -0.051395   0.000000
        CHANNELS 3 Xrotation Yrotation Zrotation
        JOINT rKnee
        {
            OFFSET   0.000000  -0.410000   0.000000
            CHANNELS 3 Xrotation Yrotation Zrotation
            JOINT rAnkle
            {
                OFFSET   0.000000  -0.390000   0.000000
                CHANNELS 3 Xrotation Yrotation Zrotation
                JOINT rToeJoint
                {
                    OFFSET   0.000000  -0.050000   0.130000
                    CHANNELS 3 Xrotation Yrotation Zrotation
                    End Site
                    {
                        OFFSET  -0.010000   0.002000   0.060000
                    }
                }
            }
        }
    }
    JOINT lHip
    {
        OFFSET   0.100000  -0.051395   0.000000
        CHANNELS 3 Xrotation Yrotation Zrotation
        JOINT lKnee
        {
            OFFSET   0.000000  -0.410000   0.000000
            CHANNELS 3 Xrotation Yrotation Zrotation
            JOINT lAnkle
            {
                OFFSET   0.000000  -0.390000   0.000000
                CHANNELS 3 Xrotation Yrotation Zrotation
                JOINT lToeJoint
                {
                    OFFSET   0.000000  -0.050000   0.130000
                    CHANNELS 3 Xrotation Yrotation Zrotation
                    End Site
                    {
                        OFFSET   0.010000   0.002000   0.060000
                    }
                }
            }
        }
    }
}
MOTION
Frames: 14
Frame Time:   0.008333
 -2.376719   0.925631   3.975860   0.000000   0.000000   0.000000   0.000000   0.000000   0.000000   0.000000   0.000000   0.000000   0.000000   0.000000   0.000000   0.000000   0.000000   0.000000   0.000000   0.000000   0.000000   0.000000   0.000000   0.000000   0.000000   0.000000   0.000000   0.000000   0.000000   0.000000   0.000000   0.000000   0.000000   0.000000   0.000000   0.000000   0.000000   0.000000   0.000000   0.000000   0.000000   0.000000   0.000000   0.000000   0.000000   0.000000   0.000000   0.000000   0.000000   0.000000   0.000000   0.000000   0.000000   0.000000   0.000000   0.000000   0.000000   0.000000   0.000000   0.000000   0.000000   0.000000   0.000000
 -2.377516   0.926130   3.974945   0.140310   0.411739  -0.529743   0.049317  -0.037181   0.303245  -0.108115  -0.373977   0.276238  -0.034777  -0.168269   0.079960   0.168410  -0.438803   0.283296   0.569281   0.491084   2.084297   0.019768   0.932327  -0.006801   0.384753  -0.614049  -3.120399   0.260451   0.194702  -0.332271   1.559464  -0.147181  -1.965375   0.013509  -0.683788   0.011407   0.517269   0.291961   2.531273  -0.605987  -0.078318   0.794767   1.787873  -0.004098   0.005371  -1.977555  -0.424838  -0.546090   0.156019   0.000367  -0.000127  -1.248744  -0.153751   0.604319   2.588513  -0.001693   0.006144  -1.359839   0.181949  -0.167461   0.318115   0.000234   0.001252
 -2.378551   0.926939   3.974252   0.177926   0.868702  -1.134016   0.114267  -0.070503   0.603260  -0.154838  -0.762872   0.611936  -0.050275  -0.333571   0.170024   0.335514  -0.806946   1.288760   1.101465   1.054053   4.742850   0.045731   1.849014  -0.011607   0.784805  -0.928986  -5.552178   0.520259   0.310142  -1.307975   3.095097  -0.402739  -4.457494   0.031294  -1.353770   0.020014   1.087512   0.391199   4.398445  -1.005467  -0.146816   1.770064   3.692696  -0.009078   0.011454  -3.831582  -0.802353  -1.067046   0.199638   0.000344  -0.000095  -2.472138  -0.296847   1.240028   5.259114  -0.001722   0.013274  -2.612429   0.361334  -0.317446   0.635337   0.000488   0.002477
 -2.379628   0.927670   3.973784   0.197102   1.304823  -1.721492   0.150061  -0.091895   0.876165  -0.203423  -1.124308   0.942716  -0.064064  -0.487663   0.251555   0.500003  -1.105603   2.733779   1.589809   1.669839   7.774823   0.071178   2.718292  -0.014411   1.170306  -1.111669  -7.144459   0.761506   0.370198  -2.676480   4.594589  -0.759506  -7.289006   0.048905  -1.990856   0.025823   1.643539   0.388321   5.518000  -1.268844  -0.210702   2.788204   5.538501  -0.013485   0.016323  -5.562750  -1.136380  -1.562165   0.237676   0.000291  -0.000059  -3.660762  -0.437292   1.796035   7.768311   0.000049   0.018475  -3.778822   0.532512  -0.452894   0.932928   0.000807   0.003353
 -2.380681   0.928051   3.973501   0.217554   1.694624  -2.274300   0.159417  -0.097470   1.126318  -0.267220  -1.450335   1.255610  -0.081519  -0.631034   0.323846   0.663492  -1.350479   4.424096   2.033026   2.330844  11.054729   0.093131   3.537402  -0.015811   1.540806  -1.222627  -8.106084   0.983614   0.399387  -4.269896   6.057066  -1.212014 -10.347173   0.064237  -2.592469   0.029509   2.181238   0.322135   6.080961  -1.433096  -0.270868   3.810684   7.296058  -0.017044   0.019611  -7.180718  -1.432997  -2.031917   0.269196   0.000229  -0.000034  -4.819739  -0.575558   2.257838  10.096806   0.002803   0.021288  -4.868460   0.694414  -0.575590   1.198368   0.001132   0.003811
 -2.381670   0.927876   3.973368   0.242420   2.028487  -2.791746   0.148730  -0.085937   1.361959  -0.344090  -1.739112   1.556707  -0.102172  -0.764629   0.386950   0.826484  -1.551980   6.256352   2.420258   3.014578  14.427403   0.110225   4.307600  -0.016216   1.897714  -1.284010  -8.598948   1.187574   0.412596  -5.978421   7.480540  -1.756113 -13.556507   0.076409  -3.158346   0.031653   2.699146   0.215280   6.260384  -1.518090  -0.326674   4.822115   8.961825  -0.019756   0.021439  -8.693071  -1.696860  -2.476728   0.294621   0.000171  -0.000019  -5.948897  -0.710556   2.631969  12.255070   0.005858   0.022011  -5.886783   0.847051  -0.686848   1.433656   0.001423   0.003934
 -2.382546   0.926985   3.973359   0.271544   2.304845  -3.277350   0.123169  -0.057598   1.592884  -0.429813  -1.991438   1.858004  -0.124720  -0.889223   0.441270   0.989038  -1.717101   8.174204   2.741031   3.689161  17.725522   0.122006   5.031542  -0.015888   2.242351  -1.304075  -8.728947   1.374825   0.418284  -7.730295   8.862182  -2.388593 -16.866382   0.085254  -3.689479   0.032698   3.196388   0.081403   6.182808  -1.537571  -0.377241   5.812620  10.537865  -0.021672   0.022075 -10.106584  -1.931885  -2.897196   0.314868   0.000122  -0.000013  -7.047205  -0.841211   2.928248  14.256429   0.008792   0.021144  -6.838379   0.990728  -0.787814   1.642605   0.001663   0.003822
 -2.382925   0.924639   3.972833   0.183619   2.573582  -3.438004   0.341735   0.052052   1.594266  -0.478342  -2.170843   2.055322  -0.431288  -0.917693   0.410996   1.160943  -1.611482   9.613935   2.904135   4.141806  20.617082   0.134732   5.986494  -0.017921   2.521326  -1.516359  -7.703753   1.559666   0.295382  -8.764285  10.075713  -3.380198 -20.155204   0.089469  -4.226316   0.034138   3.619227  -0.007600   5.097543  -1.119476  -0.524929   6.385091  11.107937  -0.019083   0.018641 -11.195081  -2.165003  -3.281771   0.688929  -0.000006  -0.000510  -8.384020  -0.816478   2.790151  17.000214   0.016084   0.023666  -7.318419   1.115735  -0.534460   1.689500   0.001344   0.003255
 -2.383243   0.921412   3.971971   0.119108   2.885013  -3.438500   0.590667   0.170733   1.492749  -0.513685  -2.323588   2.166405  -0.728716  -0.938578   0.372770   1.284234  -1.407403  10.770842   3.013409   4.639217  23.178854   0.138526   6.906454  -0.020275   2.813469  -1.602751  -6.811704   1.692259   0.075992  -9.562306  11.133324  -4.433310 -23.085539   0.090142  -4.757457   0.034819   4.042702  -0.233679   4.096280  -0.681615  -0.657887   6.786940  11.510175  -0.016444   0.015750 -12.216707  -2.379629  -3.647665   1.049796  -0.000143  -0.000708  -9.739519  -0.661317   2.637968  19.696192   0.019801   0.029298  -8.063087   1.408306  -0.163957  -1.267004   0.006110  -0.017970
 -2.383465   0.917470   3.970895   0.086115   3.137610  -3.358721   0.842678   0.332310   1.370580  -0.547686  -2.423549   2.220474  -1.003666  -0.956183   0.332123   1.358284  -1.135863  11.702004   3.073046   5.163612  25.461968   0.136570   7.788614  -0.022391   3.117120  -1.569182  -6.171643   1.789098  -0.176009 -10.211459  12.058422  -5.491520 -25.730630   0.088121  -5.267671   0.034603   4.455524  -0.533780   3.299767  -0.274084  -0.771811   7.107469  11.864320  -0.014219   0.013204 -13.171973  -2.573701  -3.992693   1.385034  -0.000301  -0.000916 -11.038669  -0.565017   2.442564  22.227538   0.021347   0.030122  -8.794661   1.579351   0.150970  -4.404830   0.011617  -0.028492
 -2.383544   0.913676   3.969499   0.078258   3.285330  -3.100050   1.117962   0.542375   1.141942  -0.582726  -2.461872   2.198055  -1.260662  -0.971276   0.290423   1.384846  -0.810347  12.513497   3.086610   5.705436  27.533909   0.131557   8.631626  -0.024157   3.424901  -1.440459  -5.748911   1.860644  -0.435278 -10.789364  12.869321  -6.529530 -28.144946   0.084438  -5.749028   0.033718   4.850257  -0.847246   2.679925   0.088686  -0.869268   7.256019  12.183702  -0.012410   0.010872 -14.062485  -2.750286  -4.317791   1.710383  -0.000500  -0.001277 -12.336880  -0.574620   2.121158  24.648766   0.019909   0.025611  -9.893149   1.611485   0.325028  -4.320943   0.009166  -0.022702
 -2.383553   0.909879   3.967961   0.080936   3.348642  -2.807967   1.395346   0.783411   0.936669  -0.607332  -2.451841   2.147147  -1.495281  -0.984676   0.248507   1.375996  -0.460903  13.189238   3.064840   6.244547  29.412938   0.124479   9.433141  -0.025335   3.731639  -1.240676  -5.464660   1.919288  -0.681782 -11.301917  13.583558  -7.532273 -30.373125   0.079612  -6.201474   0.032284   5.226839  -1.165672   2.144198   0.441903  -0.956546   7.396465  12.474549  -0.010980   0.008810 -14.894712  -2.910790  -4.623535   2.011480  -0.000757  -0.001678 -13.586157  -0.585350   1.777927  26.932558   0.017703   0.019950 -10.799587   1.600794   0.460099  -4.433176   0.007472  -0.018141
 -2.383549   0.906034   3.966351   0.095097   3.392621  -2.507997   1.666118   1.026383   0.754316  -0.625618  -2.419298   2.089887  -1.710489  -0.997372   0.211327   1.345315  -0.112421  13.754731   3.018777   6.763300  31.122040   0.116151  10.189359  -0.025916   4.032105  -1.004511  -5.291322   1.969339  -0.911159 -11.752713  14.214955  -8.490785 -32.428506   0.074048  -6.624339   0.030395   5.585360  -1.475909   1.673347   0.794252  -1.038204   7.558408  12.744334  -0.009841   0.007134 -15.672505  -3.056812  -4.910954   2.287385  -0.001045  -0.001941 -14.788532  -0.568535   1.429282  29.077852   0.015606   0.015344 -11.593816   1.599551   0.574639  -4.614708   0.006155  -0.014487
 -2.383036   0.901691   3.964427   0.130673   3.418318  -1.974100   1.874747   1.167731   0.388848  -0.524500  -2.318103   2.056669  -1.966314  -1.129792   0.134023   1.326971   0.210752  13.944069   2.790379   7.307365  32.265033   0.109961  11.380374  -0.028605   4.198687  -0.929380  -4.381340   1.991462  -1.050270 -11.837024  14.567595  -9.425357 -34.123704   0.069845  -7.232730   0.029533   5.872180  -1.765783   0.526221   1.206142  -0.871080   7.283565  12.396704  -0.007263   0.005055 -15.888792  -2.785412  -4.975512   2.549662  -0.001261  -0.000625 -16.169562  -0.374507   0.818321  31.435736   0.015507   0.012703 -12.146783   1.581595   0.727457  -5.277817   0.005450  -0.011785
